PathFileType	4	(X/Y/Z)	Walk2.trc
DataRate	CameraRate	NumFrames	NumMarkers	Units	OrigDataRate	OrigDataStartFrame	OrigNumFrames
200.000000	200.000000	8	59	mm	200.000000	283	381
Frame#	Times		LFHD		RFHD		LBHD		RBHD		C7		T10		CLAV		STRN		RBack		LASI		RASI		LPSI		RPSI		RACR1		RUA1		RElbow		RElbowM		RFA1		RWRR		RWRU		RCAR		LACR1		LUA1		LElbow		LElbowM		LFA1		LWRR		LWRU		LCAR		RTH1		RTH3		RTH2		RTH4		RLFC		RTB1		RTB3		RTB2		RTB4		RLMAL		RMMAL		RCAL		RMT1		RMT5		RToe		LTH1		LTH3		LTH2		LTH4		LLFC		LTB1		LTB3		LTB2		LTB4		LLMAL		LCAL		LMT5		LToe		LMMAL		LMT1
			X1	Y1	Z1	X2	Y2	Z2	X3	Y3	Z3	X4	Y4	Z4	X5	Y5	Z5	X6	Y6	Z6	X7	Y7	Z7	X8	Y8	Z8	X9	Y9	Z9	X10	Y10	Z10	X11	Y11	Z11	X12	Y12	Z12	X13	Y13	Z13	X14	Y14	Z14	X15	Y15	Z15	X16	Y16	Z16	X17	Y17	Z17	X18	Y18	Z18	X19	Y19	Z19	X20	Y20	Z20	X21	Y21	Z21	X22	Y22	Z22	X23	Y23	Z23	X24	Y24	Z24	X25	Y25	Z25	X26	Y26	Z26	X27	Y27	Z27	X28	Y28	Z28	X29	Y29	Z29	X30	Y30	Z30	X31	Y31	Z31	X32	Y32	Z32	X33	Y33	Z33	X34	Y34	Z34	X35	Y35	Z35	X36	Y36	Z36	X37	Y37	Z37	X38	Y38	Z38	X39	Y39	Z39	X40	Y40	Z40	X41	Y41	Z41	X42	Y42	Z42	X43	Y43	Z43	X44	Y44	Z44	X45	Y45	Z45	X46	Y46	Z46	X47	Y47	Z47	X48	Y48	Z48	X49	Y49	Z49	X50	Y50	Z50	X51	Y51	Z51	X52	Y52	Z52	X53	Y53	Z53	X54	Y54	Z54	X55	Y55	Z55	X56	Y56	Z56	X57	Y57	Z57	X58	Y58	Z58	X59	Y59	Z59

283	1.415	381.52	1435.9	-44.14	372.69	1427.9	52.218	259.91	1349.8	-71.967	248.31	1346.9	60.484	222.45	1263.8	-0.74634	139.41	1067	24.957	363.67	1181.6	-1.4157	416.14	1074.3	2.3078	178.52	1148.5	126.17	331.04	814.05	-147.14	354.24	816.78	171.53	80.789	842.25	-25.277	94.245	847.18	78.865	296.74	1217.8	178.44	318.44	1085.6	269.35	322.9	964.27	316.46	267.41	920.25	255.45	401.5	858.22	319.66	433.99	763.59	284.81	403.71	758.71	350.69	459.85	713.32	337.76	277.42	1198.3	-186.83	285.87	1030.5	-249.77	245.62	916.64	-259.37	227.64	895.99	-189.18	292.03	823.36	-300.77	323.67	711.64	-290.52	271.11	714.75	-325.5	306	663.36	-336.1	270.51	629.16	219.01	240.22	466.75	165.97	308.95	544.89	173.75	253.32	547.91	195.88	199.53	385.11	144.18	223.14	276.1	86.83	164.3	115.4	63.174	159.45	201.37	127.39	191.83	195.21	75.488	105	64.42	100.63	114.33	71.813	16.59	43.339	43.926	55.982	209.47	27.876	30.125	184.94	24.195	123.35	267.92	29.057	68.071	296.38	648.15	-202.87	339.8	486.43	-153.73	366.26	590.27	-155.44	317.77	567.1	-181.84	384.8	406.14	-119.26	434.18	322.77	-59.832	467.31	155.53	-58.317	422.51	231.91	-114.4	447.55	236.24	-57.784	436.15	67.636	-88.612	407.33	38.257	-38.486	528.64	52.468	-114.21	600.27	107.3	-74.749	461	90.45	-12.936	568.16	87.944	-42.451
284	1.42	386.74	1435	-44.774	377.89	1427.1	51.584	265.13	1349	-72.618	253.46	1346.1	59.837	227.58	1262.9	-1.4266	144.67	1066	24.25	368.87	1180.9	-1.8627	421.55	1073.6	2.2547	183.64	1147.6	125.5	336.77	812.88	-147.32	360.05	815.83	171.12	86.469	841.18	-26.109	99.661	846.5	78.083	301.76	1217.1	177.88	323.83	1085	268.91	328.57	963.8	316.22	273.11	919.54	255.36	407.54	858.01	319.37	440.36	763.53	284.47	410.16	758.54	350.37	466.49	713.41	337.4	282.78	1197.4	-187.41	291.13	1029.5	-250.26	250.92	915.69	-259.81	233.05	895.07	-189.65	297.12	822.44	-301.42	328.66	710.68	-291.38	275.97	713.86	-326.15	310.83	662.53	-337.01	275.02	628.76	218.8	243.48	466.61	165.69	312.87	544.12	173.62	257.2	547.65	195.64	202.25	385.07	143.96	225.13	275.8	86.774	164.99	115.53	63.079	160.79	201.56	127.26	193.17	195.12	75.38	105.3	65.018	100.52	114.73	72.333	16.5	43.479	44.968	55.889	209.51	27.864	30.075	184.95	24.236	123.2	267.98	28.913	68.215	301.38	646.64	-203.11	343.88	484.64	-153.99	370.89	588.32	-155.6	322.27	565.45	-182.1	389.33	405.05	-119.34	440.69	323.03	-59.788	478.06	156.46	-58.967	431.54	232.06	-114.82	456.25	236.76	-58.108	449.21	67.882	-89.665	420.85	37.534	-39.712	542.33	54.656	-114.99	612.75	111.05	-75.258	473.26	91.035	-13.862	580.81	91.038	-43.117
285	1.425	391.97	1434.1	-45.423	383.09	1426.2	50.934	270.35	1348.1	-73.288	258.61	1345.3	59.167	232.7	1262	-2.1381	149.94	1065	23.492	374.06	1180.1	-2.3354	426.96	1072.9	2.1942	188.74	1146.7	124.78	342.51	811.66	-147.49	365.87	814.91	170.74	92.194	840.12	-26.983	105.09	845.83	77.26	306.75	1216.3	177.29	329.19	1084.4	268.44	334.22	963.31	315.93	278.77	918.8	255.24	413.53	857.77	319.05	446.67	763.44	284.12	416.54	758.34	350.04	473.06	713.46	337.05	288.13	1196.4	-188.02	296.41	1028.5	-250.79	256.26	914.72	-260.27	238.51	894.13	-190.14	302.29	821.49	-302.07	333.73	709.7	-292.21	280.93	712.95	-326.78	315.76	661.68	-337.88	279.57	628.4	218.63	246.77	466.5	165.44	316.83	543.38	173.57	261.12	547.42	195.43	205.06	385.05	143.75	227.18	275.49	86.724	165.7	115.7	62.997	162.17	201.77	127.15	194.54	195.05	75.281	105.62	65.66	100.43	115.13	72.901	16.424	43.626	46.075	55.816	209.56	27.855	30.03	184.95	24.27	123.04	268.02	28.78	68.337	306.35	645.13	-203.34	348.07	482.89	-154.28	375.53	586.42	-155.77	326.82	563.82	-182.39	393.99	403.99	-119.43	447.09	323.19	-59.728	488.25	157.3	-59.511	440.22	232.17	-115.19	464.62	237.19	-58.372	461.48	68.163	-90.586	433.52	36.965	-40.806	555.14	56.65	-115.61	624.49	114.41	-75.635	484.79	91.599	-14.663	592.66	93.838	-43.647
286	1.43	397.2	1433.2	-46.089	388.29	1425.4	50.267	275.56	1347.3	-73.978	263.75	1344.5	58.472	237.8	1261.1	-2.8824	155.22	1064	22.684	379.25	1179.3	-2.8366	432.38	1072.2	2.1212	193.83	1145.7	124.01	348.26	810.38	-147.67	371.71	814.03	170.4	97.964	839.07	-27.895	110.52	845.17	76.399	311.7	1215.5	176.68	334.51	1083.8	267.94	339.83	962.8	315.61	284.39	918.04	255.07	419.48	857.5	318.71	452.92	763.31	283.76	422.86	758.11	349.69	479.55	713.48	336.71	293.48	1195.4	-188.66	301.71	1027.6	-251.35	261.64	913.72	-260.75	244	893.17	-190.64	307.52	820.53	-302.73	338.9	708.71	-293.03	285.99	712	-327.42	320.79	660.79	-338.73	284.15	628.06	218.48	250.1	466.43	165.23	320.84	542.66	173.58	265.07	547.22	195.25	207.96	385.04	143.56	229.3	275.19	86.681	166.44	115.91	62.932	163.61	202.01	127.05	195.96	194.99	75.196	105.96	66.349	100.36	115.54	73.517	16.366	43.782	47.248	55.768	209.6	27.849	29.992	184.96	24.295	122.89	268.06	28.663	68.438	311.31	643.65	-203.56	352.37	481.18	-154.58	380.22	584.59	-155.95	331.43	562.22	-182.71	398.79	402.95	-119.52	453.39	323.22	-59.654	497.88	158.01	-59.947	448.55	232.2	-115.49	472.65	237.5	-58.575	472.94	68.429	-91.364	445.32	36.509	-41.76	567.06	58.38	-116.08	635.49	117.28	-75.876	495.57	92.092	-15.332	603.7	96.274	-44.036
287	1.435	402.42	1432.4	-46.772	393.49	1424.5	49.583	280.76	1346.4	-74.688	268.89	1343.7	57.751	242.89	1260.2	-3.6609	160.52	1063	21.829	384.44	1178.5	-3.369	437.8	1071.5	2.0302	198.91	1144.7	123.2	354.02	809.06	-147.86	377.55	813.2	170.1	103.78	838.04	-28.84	115.96	844.52	75.502	316.63	1214.7	176.03	339.79	1083.1	267.4	345.41	962.27	315.24	289.98	917.27	254.87	425.36	857.2	318.35	459.11	763.14	283.4	429.1	757.85	349.33	485.96	713.47	336.37	298.83	1194.4	-189.33	307.03	1026.5	-251.95	267.07	912.71	-261.25	249.53	892.2	-191.18	312.84	819.55	-303.39	344.15	707.71	-293.83	291.13	711.03	-328.04	325.93	659.88	-339.55	288.8	627.75	218.35	253.49	466.38	165.05	324.91	541.96	173.64	269.07	547.03	195.09	210.96	385.03	143.38	231.5	274.88	86.65	167.21	116.15	62.887	165.11	202.26	126.98	197.43	194.95	75.129	106.31	67.088	100.33	115.96	74.184	16.332	43.949	48.494	55.753	209.65	27.849	29.961	184.97	24.311	122.73	268.09	28.564	68.519	316.27	642.21	-203.76	356.83	479.56	-154.88	384.97	582.87	-156.15	336.13	560.68	-183.03	403.73	401.95	-119.61	459.61	323.13	-59.57	506.93	158.55	-60.273	456.52	232.14	-115.73	480.33	237.67	-58.717	483.56	68.635	-91.994	456.21	36.129	-42.565	578.07	59.781	-116.4	645.75	119.6	-75.984	505.58	92.471	-15.866	613.92	98.279	-44.285
288	1.44	407.65	1431.5	-47.473	398.69	1423.7	48.88	285.96	1345.6	-75.421	274.02	1342.9	57.005	247.96	1259.2	-4.4751	165.82	1061.9	20.928	389.63	1177.7	-3.9349	443.23	1070.9	1.9159	203.99	1143.7	122.33	359.8	807.7	-148.06	383.39	812.43	169.83	109.63	837.04	-29.814	121.42	843.89	74.573	321.54	1213.9	175.36	345.04	1082.5	266.83	350.95	961.72	314.84	295.53	916.49	254.61	431.19	856.87	317.95	465.23	762.94	283.02	435.26	757.57	348.96	492.29	713.43	336.03	304.18	1193.4	-190.04	312.37	1025.5	-252.58	272.54	911.68	-261.77	255.11	891.22	-191.73	318.22	818.55	-304.04	349.5	706.7	-294.61	296.38	710.03	-328.66	331.16	658.94	-340.34	293.51	627.46	218.23	256.95	466.34	164.9	329.06	541.29	173.74	273.15	546.86	194.96	214.09	385.03	143.23	233.78	274.56	86.634	168.02	116.42	62.865	166.69	202.53	126.94	198.97	194.92	75.086	106.69	67.878	100.33	116.38	74.904	16.326	44.129	49.817	55.777	209.69	27.853	29.938	184.98	24.316	122.57	268.11	28.486	68.581	321.24	640.83	-203.96	361.46	478.04	-155.17	389.81	581.27	-156.35	340.94	559.21	-183.35	408.82	401	-119.7	465.73	322.9	-59.476	515.4	158.9	-60.487	464.11	231.96	-115.89	487.67	237.69	-58.797	493.33	68.745	-92.472	466.18	35.796	-43.218	588.14	60.797	-116.57	655.27	121.32	-75.961	514.82	92.7	-16.262	623.32	99.797	-44.396
289	1.445	412.87	1430.6	-48.193	403.88	1422.8	48.159	291.16	1344.8	-76.179	279.15	1342	56.233	253.03	1258.3	-5.3266	171.14	1060.9	19.983	394.83	1176.9	-4.5367	448.66	1070.2	1.773	209.06	1142.7	121.42	365.59	806.32	-148.28	389.21	811.72	169.6	115.52	836.06	-30.811	126.89	843.26	73.617	326.42	1213.1	174.65	350.25	1081.8	266.22	356.45	961.15	314.38	301.04	915.71	254.31	436.96	856.52	317.53	471.3	762.72	282.63	441.34	757.26	348.56	498.53	713.36	335.69	309.52	1192.4	-190.79	317.72	1024.5	-253.24	278.06	910.63	-262.32	260.72	890.23	-192.3	323.68	817.54	-304.7	354.93	705.68	-295.37	301.71	709.01	-329.27	336.48	657.98	-341.1	298.29	627.18	218.13	260.52	466.31	164.79	333.3	540.64	173.88	277.3	546.69	194.85	217.36	385.01	143.1	236.16	274.22	86.637	168.86	116.71	62.868	168.35	202.82	126.92	200.57	194.91	75.069	107.09	68.723	100.37	116.82	75.678	16.353	44.328	51.223	55.845	209.72	27.863	29.925	185	24.311	122.43	268.14	28.428	68.624	326.25	639.52	-204.16	366.29	476.64	-155.44	394.75	579.81	-156.57	345.87	557.83	-183.67	414.04	400.1	-119.77	471.78	322.54	-59.374	523.29	159.04	-60.592	471.33	231.66	-115.99	494.67	237.55	-58.816	502.25	68.73	-92.8	475.22	35.488	-43.72	597.29	61.383	-116.6	664.08	122.38	-75.815	523.3	92.75	-16.522	631.91	100.78	-44.376
290	1.45	418.09	1429.7	-48.933	409.07	1421.9	47.418	296.36	1343.9	-76.963	284.27	1341.2	55.436	258.09	1257.3	-6.2168	176.47	1059.8	18.995	400.03	1176.2	-5.1763	454.1	1069.6	1.596	214.13	1141.7	120.45	371.4	804.91	-148.52	395.02	811.08	169.39	121.45	835.11	-31.823	132.37	842.65	72.64	331.28	1212.2	173.9	355.42	1081.1	265.57	361.91	960.58	313.89	306.52	914.92	253.96	442.67	856.15	317.08	477.29	762.47	282.23	447.33	756.94	348.15	504.69	713.28	335.35	314.85	1191.4	-191.57	323.1	1023.5	-253.94	283.62	909.57	-262.88	266.37	889.24	-192.89	329.21	816.51	-305.37	360.45	704.66	-296.12	307.13	707.97	-329.87	341.91	657	-341.83	303.16	626.92	218.04	264.2	466.27	164.71	337.63	540.01	174.04	281.56	546.52	194.75	220.77	384.99	143.01	238.65	273.87	86.663	169.74	117.04	62.901	170.11	203.12	126.95	202.25	194.9	75.081	107.53	69.624	100.46	117.27	76.512	16.415	44.55	52.723	55.96	209.75	27.879	29.921	185.02	24.298	122.29	268.16	28.391	68.649	331.31	638.28	-204.35	371.33	475.37	-155.67	399.82	578.52	-156.79	350.94	556.55	-183.97	419.41	399.25	-119.83	477.75	322.05	-59.266	530.63	158.95	-60.59	478.19	231.22	-116.02	501.35	237.23	-58.776	510.32	68.571	-92.982	483.33	35.192	-44.075	605.52	61.508	-116.5	672.18	122.74	-75.554	531.03	92.602	-16.652	639.73	101.2	-44.234
